<svg width="33" height="33" viewBox="0 0 33 33" fill="none" xmlns="http://www.w3.org/2000/svg">
<g clip-path="url(#clip0_49_33)">
<path fill-rule="evenodd" clip-rule="evenodd" d="M11.72 0.0322266C8.45734 0.0322266 5.83334 2.76956 5.83334 6.12289C5.83334 8.16156 6.804 9.97223 8.296 11.0776C7.52704 11.6537 6.90375 12.4019 6.47609 13.2623C6.04843 14.1228 5.8283 15.0714 5.83334 16.0322C5.83334 18.0722 6.804 19.8816 8.296 20.9869C7.52704 21.563 6.90375 22.3113 6.47609 23.1717C6.04843 24.0321 5.8283 24.9807 5.83334 25.9416C5.83334 29.2949 8.45734 32.0322 11.72 32.0322C14.9813 32.0322 17.6067 29.2949 17.6067 25.9416V20.7922C18.6378 21.6519 19.9375 22.1232 21.28 22.1242C24.5427 22.1229 27.1667 19.3856 27.1667 16.0322C27.172 15.0713 26.952 14.1226 26.5243 13.2621C26.0967 12.4017 25.4732 11.6535 24.704 11.0776C25.473 10.5014 26.0963 9.75319 26.5239 8.89277C26.9516 8.03236 27.1717 7.08372 27.1667 6.12289C27.1667 2.76956 24.5427 0.0322266 21.28 0.0322266H11.72ZM8.04534 6.12289C8.04534 4.00156 9.70134 2.30289 11.72 2.30289H15.3933V9.94289H11.72C9.70134 9.94289 8.04534 8.24289 8.04534 6.12289ZM21.28 9.94156H17.6067V2.30156H21.28C23.3 2.30156 24.9547 4.00156 24.9547 6.12289C24.9547 8.24289 23.3 9.94156 21.28 9.94156ZM8.04667 16.0322C8.04667 13.9122 9.70267 12.2122 11.7213 12.2122H15.3947V19.8522H11.72C9.7 19.8522 8.04534 18.1522 8.04534 16.0322H8.04667ZM17.6067 16.0322C17.6067 13.9122 19.2627 12.2122 21.2813 12.2122C23.3013 12.2122 24.956 13.9109 24.956 16.0322C24.956 18.1522 23.3013 19.8522 21.2813 19.8522C19.2627 19.8522 17.608 18.1536 17.608 16.0322H17.6067ZM8.04667 25.9416C8.04667 23.8216 9.70267 22.1229 11.7213 22.1229H15.3947V25.9416C15.3947 28.0629 13.7413 29.7616 11.7213 29.7616C9.70267 29.7616 8.04667 28.0629 8.04667 25.9416Z" fill="#F0E3CA"/>
</g>
<defs>
<clipPath id="clip0_49_33">
<rect width="32" height="32" fill="white" transform="translate(0.5 0.0322266)"/>
</clipPath>
</defs>
</svg>
