<svg width="33" height="33" viewBox="0 0 33 33" fill="none" xmlns="http://www.w3.org/2000/svg">
<g clip-path="url(#clip0_48_19)">
<path d="M16.5 0.428246C7.661 0.428246 0.5 7.59524 0.5 16.4282C0.5 23.5013 5.084 29.4963 11.437 31.6112C12.24 31.7622 12.53 31.2672 12.53 30.8393C12.53 30.4592 12.521 29.4543 12.515 28.1203C8.062 29.0842 7.124 25.9692 7.124 25.9692C6.395 24.1253 5.343 23.6303 5.343 23.6303C3.895 22.6412 5.458 22.6623 5.458 22.6623C7.062 22.7712 7.906 24.3072 7.906 24.3072C9.33299 26.7552 11.65 26.0473 12.567 25.6352C12.707 24.6042 13.124 23.8953 13.578 23.5002C10.026 23.0992 6.291 21.7242 6.291 15.5932C6.291 13.8422 6.911 12.4163 7.936 11.2963C7.759 10.8953 7.217 9.26524 8.077 7.06125C8.077 7.06125 9.41604 6.63425 12.477 8.70227C13.7809 8.3476 15.1258 8.16574 16.477 8.16124C17.837 8.17023 19.196 8.34821 20.477 8.70227C23.52 6.63425 24.858 7.06125 24.858 7.06125C25.717 9.26524 25.175 10.8943 25.019 11.2963C26.034 12.4163 26.654 13.8432 26.654 15.5932C26.654 21.7382 22.914 23.0933 19.358 23.4842C19.914 23.9632 20.435 24.9482 20.435 26.4432C20.435 28.5833 20.415 30.3072 20.415 30.8282C20.415 31.2442 20.695 31.7443 21.519 31.5833C27.919 29.4902 32.498 23.4902 32.498 16.4272C32.498 7.59425 25.337 0.427246 16.498 0.427246L16.5 0.428246Z" fill="#F0E3CA"/>
</g>
<defs>
<clipPath id="clip0_48_19">
<rect width="32" height="32" fill="white" transform="translate(0.5 0.0322266)"/>
</clipPath>
</defs>
</svg>
