<svg width="33" height="33" viewBox="0 0 33 33" fill="none" xmlns="http://www.w3.org/2000/svg">
<path d="M27.1667 29.3655H5.83335C5.12611 29.3655 4.44783 29.0845 3.94774 28.5845C3.44764 28.0844 3.16669 27.4061 3.16669 26.6989V12.0975C3.18885 11.6568 3.31839 11.2282 3.54404 10.8489C3.76968 10.4696 4.08458 10.1513 4.46135 9.9215L15.128 3.52153C15.5423 3.27312 16.0163 3.14191 16.4993 3.14191C16.9824 3.14191 17.4564 3.27312 17.8707 3.52153L28.5374 9.9215C29.3386 10.4055 29.8307 11.2722 29.8334 12.2082V26.6989C29.8334 27.4061 29.5524 28.0844 29.0523 28.5845C28.5522 29.0845 27.874 29.3655 27.1667 29.3655ZM5.83335 13.1895V26.6989H27.1667V13.1895L16.5 20.3002L5.83335 13.1895ZM16.5 5.8082L7.58802 11.1549L16.5 17.0962L25.4107 11.1549L16.5 5.8082Z" fill="#F0E3CA"/>
</svg>
