<svg width="39" height="35" viewBox="0 0 39 35" fill="none" xmlns="http://www.w3.org/2000/svg">
<g filter="url(#filter0_d_48_15)">
<path d="M22.1667 25.3656H16.8334C14.0044 25.3656 11.2913 24.2418 9.29089 22.2414C7.2905 20.241 6.16669 17.5278 6.16669 14.6989V8.03223H11.5V14.6989C11.5 16.1134 12.0619 17.4699 13.0622 18.4701C14.0623 19.4703 15.4189 20.0322 16.8334 20.0322V8.03223H22.1667V14.0322L22.2067 14.0269C23.668 13.8446 25.0125 13.1347 25.9873 12.0308C26.962 10.9269 27.4999 9.50491 27.5 8.03223H32.8334L32.3774 10.3135C32.1042 11.679 31.5229 12.964 30.6776 14.0706C29.8324 15.1772 28.7455 16.0762 27.5 16.6989C28.7111 17.1024 29.7915 17.8241 30.628 18.7884C31.4645 19.7528 32.0263 20.9243 32.2547 22.1803L32.8334 25.3656H27.5C27.4999 23.8929 26.962 22.4709 25.9873 21.367C25.0125 20.2631 23.668 19.5532 22.2067 19.3709V25.3709L22.1667 25.3656Z" stroke="#F0E3CA" stroke-width="3" stroke-linecap="round" stroke-linejoin="round"/>
</g>
<defs>
<filter id="filter0_d_48_15" x="-0.5" y="0.0322266" width="40" height="40" filterUnits="userSpaceOnUse" color-interpolation-filters="sRGB">
<feFlood flood-opacity="0" result="BackgroundImageFix"/>
<feColorMatrix in="SourceAlpha" type="matrix" values="0 0 0 0 0 0 0 0 0 0 0 0 0 0 0 0 0 0 127 0" result="hardAlpha"/>
<feOffset dy="4"/>
<feGaussianBlur stdDeviation="2"/>
<feComposite in2="hardAlpha" operator="out"/>
<feColorMatrix type="matrix" values="0 0 0 0 0 0 0 0 0 0 0 0 0 0 0 0 0 0 0.25 0"/>
<feBlend mode="normal" in2="BackgroundImageFix" result="effect1_dropShadow_48_15"/>
<feBlend mode="normal" in="SourceGraphic" in2="effect1_dropShadow_48_15" result="shape"/>
</filter>
</defs>
</svg>
