<svg width="50" height="50" viewBox="0 0 50 50" fill="none" xmlns="http://www.w3.org/2000/svg">
<g clip-path="url(#clip0_209_164)">
<path d="M32.4735 24.9994L48.4509 9.02197C50.5153 6.95766 50.5153 3.6128 48.4509 1.54848C46.3866 -0.515835 43.0417 -0.515835 40.9775 1.54848L25.0001 17.5277L9.02271 1.55028C6.95839 -0.514037 3.61353 -0.514037 1.54921 1.55028C-0.515102 3.61459 -0.515102 6.95946 1.54921 9.02377L17.5266 25.0012L1.54921 40.9786C-0.515102 43.0429 -0.515102 46.3877 1.54921 48.452C3.61353 50.5164 6.95839 50.5164 9.02271 48.452L25.0001 32.4747L40.9775 48.452C43.0418 50.5164 46.3867 50.5164 48.4509 48.452C50.5153 46.3877 50.5153 43.0428 48.4509 40.9786L32.4735 24.9994Z" fill="black"/>
</g>
<defs>
<clipPath id="clip0_209_164">
<rect width="50" height="50" fill="white"/>
</clipPath>
</defs>
</svg>
