<?xml version="1.0" standalone="no"?>
<!DOCTYPE svg PUBLIC "-//W3C//DTD SVG 20010904//EN"
 "http://www.w3.org/TR/2001/REC-SVG-20010904/DTD/svg10.dtd">
<svg version="1.0" xmlns="http://www.w3.org/2000/svg"
 width="960.000000pt" height="1280.000000pt" viewBox="0 0 960.000000 1280.000000"
 preserveAspectRatio="xMidYMid meet">

<g transform="translate(0.000000,1280.000000) scale(0.100000,-0.100000)"
fill="#000000" stroke="none">
<path d="M4540 10240 c-145 -18 -305 -64 -414 -120 -113 -58 -210 -111 -227
-126 -8 -8 -20 -14 -25 -14 -9 0 -76 -53 -147 -115 l-27 -25 25 0 c17 0 25 6
25 17 0 9 3 14 6 10 5 -5 12 -1 68 51 14 12 30 22 36 22 5 0 10 4 10 10 0 5
19 20 41 32 140 77 139 77 161 54 12 -11 17 -11 33 0 10 8 26 14 35 14 8 0 23
9 33 20 9 11 25 20 35 20 10 0 22 4 28 9 8 8 104 26 184 36 14 1 44 6 68 10
38 7 42 6 42 -12 0 -11 10 -28 21 -39 21 -19 22 -19 15 3 -4 12 -2 24 4 28 17
11 50 -5 50 -25 0 -19 19 -30 51 -30 12 0 19 -7 19 -18 0 -15 9 -18 66 -17 64
0 67 -1 95 -35 19 -22 37 -34 49 -32 11 2 20 -2 20 -7 0 -6 -9 -11 -20 -11
-11 0 -20 -6 -20 -13 0 -7 -9 -19 -19 -27 -19 -13 -19 -36 0 -25 5 3 14 1 21
-5 7 -6 22 -17 33 -25 19 -13 19 -14 1 -21 -13 -5 -23 -2 -31 10 -8 10 -16 13
-19 7 -3 -5 0 -12 6 -15 10 -5 10 -7 1 -12 -7 -3 -13 -10 -13 -15 0 -6 4 -8 9
-5 13 8 61 -11 61 -24 0 -7 -7 -7 -21 0 -24 13 -28 11 -30 -16 -6 -59 22 -90
71 -77 15 4 26 1 31 -9 11 -19 90 -42 124 -36 16 3 25 1 25 -7 0 -7 7 -15 15
-19 8 -3 15 -14 15 -24 0 -11 6 -25 14 -32 8 -6 13 -17 10 -25 -3 -7 3 -16 15
-20 23 -7 27 -20 11 -30 -5 -3 -10 -1 -10 4 0 6 -7 11 -15 11 -11 0 -14 -7 -9
-25 4 -18 1 -27 -10 -31 -13 -5 -14 -10 -5 -20 9 -11 5 -16 -15 -25 -14 -7
-26 -18 -26 -25 0 -7 -8 -15 -17 -17 -10 -2 -3 -2 15 0 23 3 32 0 32 -11 0 -8
-5 -18 -11 -21 -5 -4 -14 -18 -19 -31 -6 -14 -18 -24 -30 -24 -12 0 -20 -7
-20 -17 0 -12 -3 -14 -8 -7 -10 15 -116 11 -136 -5 -21 -18 -20 -31 2 -31 15
0 15 -2 2 -10 -13 -9 -13 -12 3 -21 9 -5 17 -16 17 -22 0 -8 15 -14 35 -15 39
-3 47 12 13 23 -20 6 -21 8 -5 12 24 6 50 -16 44 -39 -3 -10 -1 -18 4 -18 5 0
9 -20 9 -45 0 -51 24 -74 59 -56 15 8 20 7 25 -5 8 -22 8 -24 -8 -24 -23 0
-31 -22 -12 -32 9 -5 16 -17 16 -26 0 -14 -2 -15 -10 -2 -5 8 -11 12 -13 10
-25 -31 -37 -61 -37 -92 0 -21 -4 -38 -10 -38 -5 0 -10 10 -10 23 0 15 -10 26
-31 36 -39 17 -50 4 -44 -53 5 -52 -2 -62 -26 -35 l-19 22 -30 -31 c-33 -35
-70 -42 -71 -14 0 13 -2 14 -6 2 -3 -8 -12 -18 -18 -22 -7 -4 -21 -30 -31 -58
-11 -32 -25 -52 -38 -56 -12 -4 -31 -17 -43 -30 -18 -20 -20 -28 -12 -63 5
-23 11 -76 14 -118 3 -43 10 -101 15 -128 6 -28 10 -88 10 -135 -1 -137 0
-149 10 -155 6 -3 10 -18 10 -33 0 -15 7 -38 16 -51 17 -23 36 -83 36 -111 0
-40 -27 -90 -47 -90 -8 0 -15 -4 -15 -10 0 -5 -8 -10 -17 -10 -14 0 -15 -2 -5
-9 10 -6 7 -10 -12 -15 -14 -3 -37 -18 -52 -31 -29 -27 -35 -54 -35 -160 -1
-27 -7 -60 -16 -73 -8 -13 -12 -31 -9 -39 5 -11 2 -13 -10 -9 -12 4 -14 1 -9
-14 3 -10 -1 -30 -9 -42 -10 -15 -14 -41 -12 -73 2 -45 5 -50 35 -62 42 -17
31 -32 -21 -30 -25 1 -43 -3 -46 -11 -2 -7 -18 -12 -36 -12 -18 0 -46 -4 -62
-9 -74 -23 -187 -43 -224 -39 -22 2 -40 0 -40 -3 0 -4 -12 -12 -27 -17 -44
-16 -60 -34 -67 -74 -6 -31 -4 -37 14 -43 14 -4 30 2 51 19 28 24 37 26 132
25 56 -1 116 1 134 4 20 4 44 -1 69 -14 21 -10 44 -19 52 -19 39 0 103 -67 69
-71 -7 -1 -26 -3 -43 -5 -35 -2 -74 -20 -89 -40 -5 -7 -27 -15 -49 -17 -39 -5
-56 -19 -56 -49 0 -10 -4 -18 -10 -18 -5 0 -8 12 -6 28 2 15 1 19 -1 10 -2 -9
-11 -22 -19 -28 -18 -16 -18 -34 1 -26 8 3 14 2 14 -2 -3 -19 2 -26 10 -13 7
11 14 9 38 -8 24 -18 45 -23 116 -24 48 -1 87 -5 87 -8 0 -3 25 -12 55 -19 38
-9 60 -21 71 -38 13 -20 14 -26 3 -33 -8 -5 -14 -14 -14 -20 0 -7 -13 -16 -30
-21 -16 -4 -38 -20 -47 -35 -17 -27 -17 -27 -18 -5 0 12 -2 22 -4 22 -10 0
-66 -59 -66 -69 0 -6 -12 -16 -27 -21 -36 -13 -77 -33 -83 -41 -10 -13 -100
-21 -100 -9 0 7 -8 9 -19 5 -11 -3 -28 -2 -38 4 -10 5 -39 19 -65 31 -27 12
-50 26 -54 31 -3 5 -14 9 -25 9 -10 0 -19 5 -19 10 0 6 -6 10 -14 10 -8 0 -21
8 -28 18 -11 17 -49 42 -61 42 -11 0 7 -52 19 -57 8 -3 14 -12 14 -19 0 -8 7
-17 15 -20 8 -4 15 -14 15 -24 0 -10 7 -23 15 -30 11 -9 15 -9 15 -1 0 7 18
-6 41 -29 22 -22 44 -40 49 -40 5 0 10 -3 12 -8 5 -11 79 -65 111 -82 16 -8
24 -16 18 -18 -12 -4 11 -32 26 -32 15 0 63 -25 63 -32 0 -5 7 -8 15 -8 8 0
20 -9 27 -20 7 -11 18 -20 24 -20 7 0 14 -6 17 -14 4 -11 -3 -16 -26 -19 l-32
-3 33 -8 c25 -7 32 -14 32 -32 0 -13 -7 -27 -16 -32 -9 -5 -14 -15 -10 -21 4
-6 12 -9 17 -6 5 4 9 -1 9 -9 0 -9 21 -37 47 -63 l47 -47 -32 -13 c-37 -15
-37 -16 -16 -48 14 -21 14 -25 2 -25 -12 0 -15 -17 -14 -85 1 -52 -3 -85 -9
-86 -5 0 -1 -5 11 -10 27 -14 62 -71 46 -77 -7 -2 -12 -14 -12 -27 0 -13 -4
-27 -10 -30 -14 -9 -12 -43 3 -48 6 -2 4 -3 -5 -2 -9 2 -25 -6 -34 -16 -9 -10
-22 -19 -28 -19 -11 0 -17 -10 -49 -75 -8 -16 -26 -42 -40 -58 -15 -16 -24
-34 -20 -42 7 -19 -44 -68 -63 -61 -9 3 -14 -1 -14 -13 0 -25 -9 -31 -34 -21
-12 4 -34 6 -49 3 -20 -4 -27 -11 -27 -29 0 -25 -15 -33 -23 -11 -4 7 -6 6 -6
-4 -1 -13 -11 -17 -46 -16 -43 0 -50 5 -128 81 -45 45 -95 99 -112 121 -16 22
-54 67 -85 100 -123 132 -244 304 -308 436 -63 130 -68 155 -48 235 22 85 9
105 -35 56 -22 -25 -29 -42 -29 -75 0 -24 4 -47 9 -52 5 -6 16 -35 26 -65 19
-61 96 -221 138 -287 15 -24 27 -45 27 -49 0 -3 15 -24 34 -47 19 -23 46 -64
60 -92 15 -27 31 -52 37 -55 5 -4 12 -17 14 -30 2 -13 17 -37 33 -54 16 -17
35 -46 42 -64 7 -18 23 -41 36 -51 34 -27 33 -82 -1 -97 -19 -9 -27 -9 -35 1
-18 22 -65 27 -103 12 -38 -16 -64 -69 -52 -107 11 -33 35 -24 35 13 0 72 51
78 75 9 22 -60 56 -316 74 -553 4 -58 10 -110 13 -115 3 -5 9 -80 13 -168 3
-87 11 -170 16 -185 6 -14 9 -69 8 -121 -1 -53 1 -102 6 -109 4 -7 11 -72 16
-145 5 -72 11 -147 14 -166 3 -19 8 -73 10 -120 19 -341 28 -476 35 -550 11
-104 27 -317 34 -465 4 -60 8 -126 11 -145 8 -65 16 -234 21 -455 15 -708 14
-672 34 -930 5 -71 11 -268 12 -437 l3 -308 376 0 377 0 6 23 c9 33 8 37 -9
37 -8 0 -15 6 -15 14 0 8 -7 17 -16 20 -13 5 -15 15 -11 50 4 27 2 46 -4 48
-17 6 -20 68 -3 75 9 3 13 12 8 22 -4 9 -6 31 -5 49 1 17 -3 41 -9 51 -7 14
-6 21 3 24 9 4 8 8 -3 16 -13 10 -13 12 0 21 13 9 13 11 0 20 -13 9 -13 10 0
10 12 1 11 3 -2 11 -11 6 -18 22 -18 40 0 26 3 29 20 24 30 -9 24 4 -6 15 -22
9 -24 13 -14 25 7 8 16 13 20 10 5 -3 11 -1 14 4 4 5 -1 11 -11 13 -12 2 -17
16 -21 53 -2 28 -9 56 -15 64 -9 11 -9 15 0 18 8 3 10 30 6 91 -3 49 -1 104 5
126 8 27 8 43 0 56 -8 12 -8 30 1 64 8 34 9 58 1 86 -8 28 -8 46 0 60 12 22 3
120 -11 120 -5 0 -4 11 1 25 6 17 6 33 -2 50 -8 18 -8 28 1 39 7 8 10 20 6 26
-11 18 -14 100 -4 100 11 0 12 57 1 64 -4 2 -6 22 -4 43 1 21 4 58 5 82 2 24
-3 63 -11 88 -13 40 -13 45 3 64 14 15 16 22 7 31 -17 17 -15 97 3 132 12 22
12 32 4 42 -6 8 -9 14 -5 14 3 0 -1 16 -9 36 -8 20 -12 41 -8 48 12 19 2 70
-18 92 -16 17 -17 24 -7 52 10 26 9 34 -4 49 -25 27 -34 73 -15 73 25 0 28 14
14 61 -7 24 -12 56 -11 71 2 15 -4 32 -11 38 -11 9 -13 33 -8 106 3 66 2 94
-6 94 -7 0 -2 14 11 30 24 33 27 70 11 163 -8 49 -7 63 9 100 15 31 18 56 15
95 -4 42 -2 55 10 59 14 6 14 8 -1 19 -15 10 -16 16 -6 34 7 12 10 30 7 41 -3
10 0 20 6 22 6 2 3 14 -7 30 -14 21 -16 35 -10 69 5 24 7 52 6 62 -1 10 5 31
14 45 12 17 14 26 6 29 -13 4 -16 110 -4 128 11 18 68 27 92 14 17 -9 26 -8
45 4 30 20 75 20 140 1 l50 -14 -47 1 c-26 1 -47 -2 -45 -7 1 -6 20 -10 42
-11 80 -2 95 -4 95 -14 0 -5 -15 -10 -32 -10 -48 0 -78 -10 -78 -27 0 -11 4
-11 20 -3 16 9 22 7 27 -6 3 -10 25 -35 47 -57 l40 -39 -24 -19 -25 -19 28 0
c25 0 27 -3 22 -22 -4 -13 -9 -30 -11 -39 -2 -9 4 -26 15 -38 16 -19 18 -28 9
-59 -7 -26 -7 -37 1 -40 17 -6 13 -26 -10 -45 -19 -17 -19 -20 -6 -35 12 -13
13 -22 6 -35 -7 -12 -7 -22 0 -31 8 -10 7 -21 -4 -42 -8 -16 -15 -39 -15 -51
0 -12 -7 -28 -15 -37 -19 -19 -19 -26 0 -26 17 0 21 -45 5 -55 -6 -3 -7 -17
-4 -30 4 -17 0 -26 -15 -35 -12 -6 -19 -15 -16 -19 3 -5 -2 -28 -10 -50 -8
-23 -10 -39 -4 -35 7 4 8 -6 5 -28 -3 -18 -8 -71 -12 -118 -4 -47 -8 -101 -10
-120 -2 -19 -5 -76 -8 -127 -2 -51 -7 -97 -11 -103 -11 -18 -15 -150 -7 -233
6 -61 5 -80 -6 -89 -17 -14 -12 -124 8 -211 12 -46 12 -62 2 -78 -10 -16 -10
-24 3 -42 19 -28 19 -71 0 -87 -12 -10 -13 -16 -4 -26 9 -11 8 -14 -6 -14 -14
0 -15 -3 -5 -15 7 -8 10 -27 7 -42 -3 -17 0 -34 9 -44 11 -12 12 -31 3 -105
-9 -75 -8 -99 5 -142 8 -29 11 -52 5 -52 -15 0 -10 -30 5 -36 10 -4 14 -19 14
-42 -1 -21 2 -48 6 -62 6 -19 5 -21 -3 -10 -15 21 -14 10 4 -41 10 -27 12 -45
6 -47 -7 -2 -6 -10 1 -21 7 -11 8 -26 3 -37 -4 -11 -9 -23 -11 -29 -2 -5 -6
-20 -10 -32 -5 -17 -2 -23 10 -23 9 0 16 -4 16 -10 0 -5 -4 -10 -9 -10 -5 0
-8 -36 -8 -80 2 -79 3 -81 25 -75 28 7 28 -2 1 -24 -16 -12 -20 -23 -15 -39 4
-12 12 -22 17 -22 5 0 9 -21 9 -46 0 -37 -4 -47 -20 -51 -26 -7 -25 -17 3 -30
22 -11 22 -11 -5 -18 -16 -4 -28 -11 -28 -16 0 -5 7 -6 16 -2 14 5 15 1 9 -28
-4 -19 -12 -36 -18 -38 -5 -2 4 -10 22 -17 33 -14 43 -50 16 -60 -16 -6 -19
-31 -9 -58 6 -15 8 -15 20 1 7 10 14 13 14 6 0 -6 3 -18 6 -27 4 -11 1 -16
-10 -16 -23 0 -20 -21 4 -27 26 -7 26 -33 1 -33 -30 0 -35 -19 -6 -26 14 -3
25 -13 25 -20 0 -11 -4 -12 -19 -4 -25 13 -61 13 -61 0 0 -5 6 -10 14 -10 8 0
17 -7 20 -16 4 -10 13 -13 26 -9 11 4 20 2 20 -4 0 -8 659 -11 2240 -11 l2240
0 0 3645 0 3644 -34 7 c-24 4 -33 10 -29 20 3 8 0 14 -6 14 -6 0 -11 -6 -11
-14 0 -18 -27 -29 -67 -27 -27 2 -32 -1 -38 -28 -10 -45 -42 -43 -38 2 3 25
-2 36 -22 52 -15 11 -39 33 -55 49 -15 15 -33 25 -39 22 -16 -10 -13 -24 7
-29 16 -4 15 -5 -1 -6 -15 -1 -18 -8 -15 -38 2 -22 -2 -38 -10 -41 -6 -2 -12
3 -12 11 0 19 -33 47 -56 47 -10 0 -32 7 -48 15 -15 8 -37 15 -47 15 -11 0
-19 6 -19 14 0 17 -73 66 -100 66 -21 0 -24 8 -14 34 4 12 11 13 31 5 17 -6
30 -6 36 0 14 14 -12 44 -31 36 -9 -3 -19 0 -23 7 -6 9 -13 9 -34 0 -28 -13
-65 -8 -65 9 0 5 -19 9 -42 8 -114 -4 -187 3 -199 18 -11 12 -10 17 4 27 11 9
13 16 6 23 -7 7 -18 3 -36 -15 -25 -25 -26 -25 -39 -7 -8 11 -12 26 -9 36 7
20 -20 46 -30 29 -5 -8 -11 -8 -20 0 -9 7 -16 6 -25 -5 -16 -19 -37 -19 -55
-1 -20 20 -159 49 -196 41 -19 -4 -38 -2 -52 8 -24 16 -85 32 -105 28 -7 -1
-22 5 -34 13 -19 14 -23 14 -34 -2 -8 -9 -14 -25 -14 -34 0 -22 -2 -22 -45 2
-42 23 -115 24 -160 1 -21 -10 -59 -15 -125 -15 -52 0 -85 -2 -72 -4 19 -3 22
-10 22 -46 0 -42 1 -42 30 -38 25 4 30 1 30 -16 0 -29 -17 -37 -46 -21 -18 9
-27 10 -35 2 -8 -8 -20 -8 -37 -2 -20 8 -35 6 -64 -8 -21 -10 -36 -23 -33 -30
2 -7 -2 -10 -11 -6 -11 4 -15 0 -12 -13 2 -16 -2 -18 -26 -16 -16 2 -36 -4
-47 -14 -13 -12 -28 -15 -52 -10 -38 7 -53 -9 -35 -35 8 -11 11 -11 15 -1 4
10 9 10 24 -4 10 -9 27 -14 39 -11 16 4 20 0 20 -19 0 -20 -3 -23 -17 -13 -13
8 -26 7 -48 -1 -26 -10 -28 -13 -12 -21 30 -17 21 -54 -21 -83 -45 -31 -59
-32 -65 -8 -4 14 -6 13 -12 -6 -7 -20 -13 -23 -36 -18 -16 3 -29 1 -29 -4 0
-6 -8 -10 -17 -10 -32 0 -45 -15 -37 -43 8 -33 43 -37 51 -7 3 11 12 20 19 20
17 0 18 -12 3 -27 -18 -18 27 -36 71 -29 34 5 38 3 44 -18 15 -61 -2 -67 -176
-66 -31 0 -59 -4 -63 -10 -3 -5 -22 -10 -41 -10 -33 0 -45 -12 -24 -25 6 -3
10 -1 10 4 0 15 12 14 34 -2 25 -18 13 -53 -20 -60 -13 -2 -27 0 -30 4 -9 14
-34 10 -41 -6 -3 -9 2 -24 11 -34 13 -14 15 -24 7 -38 -5 -10 -12 -26 -15 -35
-7 -23 -26 -23 -26 -1 0 9 -3 14 -6 10 -4 -3 -4 -18 0 -32 5 -21 12 -25 46
-25 29 0 40 -4 40 -15 0 -17 -18 -19 -54 -5 -21 8 -26 6 -26 -6 0 -8 -16 -24
-35 -35 -30 -18 -33 -24 -24 -41 8 -15 7 -24 -5 -37 -9 -10 -16 -36 -16 -62
-1 -24 -5 -63 -9 -86 -8 -40 -6 -43 28 -74 23 -20 31 -34 23 -36 -14 -5 -7
-68 10 -90 5 -6 6 -22 3 -36 -5 -18 -1 -31 13 -45 11 -11 25 -29 30 -39 11
-22 4 -113 -9 -113 -5 0 -9 -18 -9 -40 0 -22 5 -40 10 -40 16 0 12 -18 -16
-60 -27 -41 -60 -53 -70 -26 -9 23 -34 7 -34 -21 0 -22 3 -24 25 -19 17 4 27
2 31 -7 3 -8 15 -12 32 -9 35 5 64 -38 44 -66 -7 -9 -19 -34 -28 -55 -13 -29
-19 -35 -30 -26 -15 13 -34 4 -34 -17 0 -8 9 -14 19 -14 16 0 18 -5 14 -39 -4
-32 -1 -41 18 -54 l23 -16 -28 -26 c-15 -14 -31 -25 -35 -25 -14 0 -22 -31
-12 -48 5 -9 5 -22 -2 -32 -8 -13 -5 -22 12 -39 11 -11 21 -26 21 -32 0 -8 4
-8 15 1 19 16 52 4 58 -21 3 -12 1 -33 -5 -48 l-11 -26 -7 30 c-8 30 -8 30 -9
3 0 -14 -5 -28 -10 -30 -5 -1 -12 -20 -16 -40 -7 -35 -5 -38 16 -38 14 0 29
-8 36 -19 10 -16 8 -19 -16 -24 -15 -3 -45 -2 -67 3 -63 15 -122 11 -164 -10
-45 -23 -61 -19 -112 26 -26 23 -50 34 -85 39 -98 13 -132 39 -156 120 -8 28
-31 74 -51 104 -20 29 -36 57 -36 62 0 20 -152 166 -193 187 -50 25 -63 39
-100 103 -54 96 -175 164 -352 199 -98 20 -89 -19 -91 394 l-2 365 52 83 c91
146 126 229 171 408 l21 85 38 6 c25 4 49 18 71 40 45 46 106 165 145 279 18
52 43 124 57 160 31 83 41 129 58 267 17 137 12 171 -32 223 -47 54 -91 55
-162 5 -46 -33 -49 -34 -54 -15 -3 11 -1 66 5 123 31 333 33 684 4 802 -62
252 -137 391 -308 565 -162 166 -266 244 -462 346 -203 106 -352 137 -546 114z
m170 -151 c0 -5 -7 -9 -15 -9 -9 0 -15 9 -15 21 0 18 2 19 15 9 8 -7 15 -16
15 -21z m245 -169 c3 -6 -1 -7 -9 -4 -18 7 -21 14 -7 14 6 0 13 -4 16 -10z
m195 -1049 c0 -5 -11 -8 -25 -8 -14 0 -28 3 -31 8 -3 5 9 9 25 9 17 0 31 -4
31 -9z m30 -515 c0 -11 -19 -15 -25 -6 -3 5 1 10 9 10 9 0 16 -2 16 -4z m2520
-730 c0 -3 -4 -8 -10 -11 -5 -3 -10 -1 -10 4 0 6 5 11 10 11 6 0 10 -2 10 -4z
m-2987 -334 c35 -38 20 -161 -22 -177 -23 -9 -83 6 -77 20 2 7 -1 18 -7 24 -8
8 -6 16 6 29 9 10 17 24 17 31 0 7 4 9 10 6 5 -3 12 7 16 22 9 36 23 63 33 63
4 0 15 -8 24 -18z m2587 -22 c0 -5 -4 -10 -10 -10 -5 0 -10 5 -10 10 0 6 5 10
10 10 6 0 10 -4 10 -10z m1985 -30 c3 -5 1 -10 -4 -10 -6 0 -11 5 -11 10 0 6
2 10 4 10 3 0 8 -4 11 -10z m-1955 -24 c0 -16 -18 -31 -27 -22 -8 8 5 36 17
36 5 0 10 -6 10 -14z m-2689 -333 c12 -15 12 -16 -4 -10 -10 4 -23 7 -28 7 -5
0 -9 5 -9 10 0 16 26 12 41 -7z m2282 -303 c-7 -27 -23 -15 -23 17 0 21 3 23
14 14 8 -7 12 -21 9 -31z m-2903 -80 c0 -5 -4 -10 -10 -10 -5 0 -10 5 -10 10
0 6 5 10 10 10 6 0 10 -4 10 -10z m2894 -16 c20 -8 11 -24 -15 -24 -10 0 -19
7 -19 15 0 16 9 19 34 9z m25 -103 c9 -6 10 -11 2 -15 -6 -4 -11 -16 -11 -27
0 -10 -7 -19 -15 -19 -8 0 -15 7 -15 15 0 8 -4 15 -10 15 -5 0 -10 9 -10 20 0
21 33 28 59 11z m-2419 -1029 c0 -5 -11 -19 -25 -32 -29 -27 -32 -21 -9 15 16
24 34 33 34 17z m1177 -86 c-7 -13 -15 -22 -19 -20 -5 3 -8 -2 -8 -10 0 -9 5
-16 10 -16 17 0 11 -28 -7 -34 -16 -5 -57 -85 -58 -111 0 -5 -5 -10 -12 -10
-11 0 -65 -67 -89 -110 -6 -11 -21 -21 -33 -23 -15 -2 -21 -10 -21 -27 0 -15
-10 -31 -25 -41 -14 -9 -25 -24 -25 -33 -1 -21 -35 -66 -52 -66 -7 0 -14 -6
-14 -12 -3 -30 -4 -33 -14 -33 -5 0 -10 9 -10 20 0 28 -15 25 -53 -10 -17 -16
-51 -43 -74 -60 -34 -24 -43 -36 -43 -60 0 -19 -5 -30 -14 -30 -8 0 -37 -16
-65 -36 -32 -21 -59 -33 -70 -29 -10 3 -31 -5 -51 -20 -19 -14 -43 -25 -54
-25 -12 0 -33 -6 -48 -14 -14 -8 -42 -19 -62 -26 -20 -6 -34 -16 -31 -21 4 -5
-2 -9 -12 -9 -10 0 -34 -10 -53 -21 -19 -12 -56 -28 -82 -36 -26 -7 -48 -18
-48 -23 0 -5 -7 -7 -15 -3 -9 3 -21 -2 -28 -11 -7 -9 -25 -18 -40 -20 -15 -1
-30 -6 -34 -9 -3 -4 -13 -7 -21 -7 -9 0 -23 -6 -31 -14 -9 -7 -45 -23 -80 -35
-83 -29 -101 -38 -101 -56 0 -23 -27 -18 -33 6 -7 25 -27 16 -27 -11 0 -10 -4
-21 -8 -24 -4 -2 -51 -8 -105 -12 l-97 -7 6 44 c3 24 1 82 -4 128 -13 105 -9
116 26 93 15 -9 34 -24 43 -33 26 -26 80 -35 91 -15 15 27 69 19 106 -14 17
-16 32 -34 32 -40 0 -13 47 -13 55 1 4 6 -1 19 -11 29 -60 61 -59 84 1 34 52
-42 27 -45 200 28 79 33 80 34 81 71 1 20 -2 34 -7 32 -4 -3 -12 10 -19 29 -6
19 -18 40 -26 46 -7 7 -14 21 -14 31 0 10 -11 35 -25 55 -28 42 -32 76 -10 98
10 10 12 17 4 21 -6 4 -8 18 -5 31 4 14 2 24 -4 24 -6 0 -8 5 -5 11 4 6 13 8
21 5 7 -3 18 3 23 12 8 13 13 14 22 5 14 -14 47 -3 84 28 14 13 31 24 39 25
16 2 94 39 120 56 15 10 19 10 23 1 3 -7 15 -13 27 -13 31 0 46 -19 39 -51 -3
-16 -3 -39 1 -53 7 -30 70 -96 91 -96 8 0 15 -3 15 -8 0 -4 19 -12 43 -17 51
-12 79 -2 102 38 13 21 20 26 25 16 13 -21 46 8 269 229 201 200 297 292 305
292 2 0 -1 -11 -7 -24z m1203 -5 c0 -6 -4 -13 -10 -16 -5 -3 -10 1 -10 9 0 9
5 16 10 16 6 0 10 -4 10 -9z m-831 -150 c-7 -23 -18 -46 -26 -52 -7 -6 -13
-18 -13 -25 0 -8 -3 -14 -8 -14 -4 0 -28 -27 -52 -61 -25 -34 -56 -71 -69 -83
-13 -11 -27 -31 -32 -43 -5 -13 -20 -25 -36 -28 -15 -4 -40 -13 -55 -21 -16
-8 -28 -11 -28 -7 0 5 43 58 96 118 52 61 120 142 150 182 71 94 94 105 73 34z
m927 -33 c3 -5 4 -12 1 -14 -7 -7 -47 15 -47 25 0 11 38 2 46 -11z m49 -27
c-3 -12 -15 -21 -25 -21 -13 0 -17 5 -14 15 4 8 10 15 15 15 5 0 9 8 9 17 0
12 3 14 11 6 6 -6 8 -20 4 -32z m-5 -46 c0 -8 -4 -15 -10 -15 -5 0 -10 7 -10
15 0 8 5 15 10 15 6 0 10 -7 10 -15z m-3090 -15 c0 -5 -5 -10 -11 -10 -5 0 -7
5 -4 10 3 6 8 10 11 10 2 0 4 -4 4 -10z m3140 -44 c0 -55 -16 -62 -30 -12 -14
50 -7 74 16 55 8 -6 14 -26 14 -43z m-3183 21 c8 23 33 1 33 -29 0 -21 6 -31
20 -35 11 -3 20 -11 20 -18 0 -7 9 -15 20 -18 11 -3 20 -1 20 4 0 5 -4 9 -10
9 -5 0 -10 8 -9 18 0 10 3 12 6 5 2 -7 11 -13 18 -13 9 0 13 -14 12 -50 -1
-30 3 -52 10 -54 13 -6 35 -75 27 -88 -9 -14 -42 -9 -60 10 -10 9 -18 15 -19
12 -3 -8 -78 63 -106 100 -36 48 -42 72 -29 120 10 36 13 40 27 28 12 -10 17
-10 20 -1z m83 -43 c0 -9 -5 -14 -12 -12 -18 6 -21 28 -4 28 9 0 16 -7 16 -16z
m3120 -48 c0 -3 -4 -8 -10 -11 -5 -3 -10 -1 -10 4 0 6 5 11 10 11 6 0 10 -2
10 -4z m-1720 -551 c-5 -55 -9 -140 -10 -190 0 -49 -6 -151 -14 -225 -30 -271
-41 -610 -37 -1120 6 -631 6 -650 -9 -735 -18 -101 -24 -120 -45 -124 -34 -6
-40 20 -33 135 3 60 9 128 13 152 8 44 -6 88 -32 105 -7 4 -11 23 -8 46 2 20
0 44 -5 51 -4 7 -4 20 0 29 5 9 11 23 13 32 4 12 13 15 31 12 23 -5 26 -2 26
21 0 16 -11 38 -26 53 -24 24 -25 26 -8 45 13 13 17 32 15 59 -1 22 2 46 8 52
6 8 10 123 11 307 1 162 6 318 10 345 5 28 14 154 20 280 6 127 15 257 20 290
5 33 11 137 14 230 3 117 9 181 20 205 14 34 27 53 32 47 1 -1 -1 -47 -6 -102z
m1837 79 c-3 -3 -12 -4 -19 -1 -8 3 -5 6 6 6 11 1 17 -2 13 -5z m94 -74 c24
-22 48 -40 52 -40 5 0 6 -9 2 -19 -3 -12 0 -23 8 -28 16 -9 31 -110 17 -118
-8 -5 -27 -287 -22 -339 1 -16 -1 -34 -6 -40 -5 -6 -8 -30 -8 -53 1 -23 -2
-40 -5 -37 -12 7 -39 -8 -39 -21 0 -8 9 -16 19 -20 14 -4 18 -14 17 -38 -2
-18 0 -59 4 -92 6 -46 4 -66 -7 -84 -15 -23 -14 -84 1 -121 4 -10 -2 -19 -16
-25 -25 -11 -27 -44 -6 -98 8 -20 7 -31 -1 -41 -7 -8 -11 -23 -9 -32 4 -22
-31 -32 -43 -13 -6 11 -11 11 -20 2 -10 -10 -9 -14 4 -19 27 -10 20 -26 -25
-60 -34 -26 -45 -30 -60 -21 -14 9 -23 9 -38 -1 -18 -11 -20 -10 -20 17 0 16
-7 34 -15 41 -8 7 -15 17 -15 23 0 6 -7 19 -17 29 -9 10 -16 33 -16 51 0 17
-6 41 -13 52 -8 11 -14 32 -14 47 0 14 -7 34 -16 43 -12 11 -14 19 -6 27 7 7
7 16 0 28 -6 9 -8 28 -5 41 9 34 57 89 78 89 21 0 34 -17 17 -22 -8 -3 -6 -7
5 -11 13 -5 17 -1 17 19 0 20 4 25 17 20 25 -10 63 32 63 70 0 17 -7 37 -15
44 -8 7 -15 18 -15 25 0 8 -12 23 -26 34 -18 14 -24 26 -19 40 7 23 -10 38
-19 16 -7 -19 -26 -19 -26 0 0 20 -17 19 -29 -2 -9 -15 -10 -14 -11 10 0 25
-3 27 -40 27 -39 0 -40 1 -40 36 0 30 -3 34 -19 29 -25 -8 -49 20 -25 29 16 6
15 8 -5 22 -15 11 -20 22 -16 35 4 11 2 19 -4 19 -6 0 -11 -7 -11 -15 0 -24
-29 -17 -42 10 -6 14 -17 25 -25 25 -18 0 -17 16 2 24 17 6 20 42 4 52 -6 3
-15 0 -20 -7 -6 -9 -7 -1 -3 21 9 44 10 46 29 30 11 -9 13 -16 6 -23 -7 -7 6
-18 37 -35 55 -28 74 -49 67 -73 -5 -14 1 -18 26 -21 26 -2 37 -11 55 -43 12
-22 20 -46 17 -55 -3 -10 -2 -11 4 -3 6 8 14 9 23 3 19 -12 60 -13 60 -1 0 5
-8 12 -17 16 -17 6 -17 7 0 19 9 7 17 24 17 38 0 13 5 29 12 36 10 10 8 19 -6
42 -12 21 -15 40 -11 60 5 22 1 34 -15 50 -11 11 -18 25 -15 30 4 6 -1 13 -9
16 -9 3 -16 14 -16 23 0 9 -5 22 -12 29 -15 15 10 65 29 58 17 -7 30 24 14 33
-13 8 29 61 49 61 6 0 13 13 16 29 7 32 19 37 85 40 30 1 45 -7 80 -39z
m-2415 0 c9 0 12 -4 9 -10 -3 -5 -2 -10 3 -10 15 0 23 -43 9 -52 -22 -14 -132
-9 -153 7 -19 15 -19 15 0 30 11 8 27 15 35 15 14 0 14 2 1 10 -11 8 -8 9 11
4 16 -3 30 -1 34 6 4 6 14 9 22 6 8 -3 21 -6 29 -6z m-805 -248 l23 -9 -22
-14 c-12 -8 -22 -21 -22 -30 0 -8 -3 -19 -7 -23 -14 -13 -11 -87 3 -82 7 3 19
-1 27 -7 19 -15 34 -132 18 -142 -8 -4 -6 -11 5 -22 10 -11 14 -25 9 -42 -13
-56 -22 -111 -16 -111 10 0 10 -54 0 -72 -7 -13 -4 -21 16 -34 26 -17 35 -54
13 -54 -8 0 -9 -3 -3 -8 23 -16 32 -50 28 -99 -5 -43 -2 -54 17 -73 16 -16 22
-34 22 -65 0 -37 3 -44 21 -47 17 -2 22 -11 24 -37 2 -19 -2 -40 -8 -47 -7 -9
-7 -19 0 -32 11 -21 10 -120 -2 -139 -5 -8 -3 -13 7 -13 21 0 29 -36 24 -109
-3 -53 0 -62 16 -67 17 -6 16 -8 -9 -32 -21 -19 -25 -27 -14 -31 34 -11 42
-43 44 -165 1 -67 0 -125 -3 -130 -2 -4 -6 -56 -8 -115 -8 -219 -7 -290 5
-304 9 -11 8 -17 -5 -28 -10 -8 -14 -23 -12 -41 4 -21 -1 -32 -14 -39 -13 -7
-16 -15 -10 -27 5 -9 9 -32 10 -50 2 -29 0 -33 -18 -27 -23 7 -25 2 -8 -24 6
-10 8 -27 4 -37 -6 -16 -9 -16 -16 -4 -8 13 -10 13 -10 1 0 -11 -3 -12 -11 -4
-6 6 -11 24 -11 40 0 15 -5 34 -10 40 -6 7 -12 54 -14 105 -2 51 -6 125 -10
163 -3 39 -7 104 -9 145 -2 41 -7 102 -10 135 -3 33 -11 105 -16 160 -5 55
-13 109 -18 120 -5 11 -9 27 -9 35 0 8 -3 30 -6 49 -4 19 -7 73 -8 120 0 47
-5 97 -10 111 -6 14 -11 86 -12 161 -2 75 -6 141 -10 147 -15 24 -25 149 -27
312 0 47 -5 90 -11 97 -5 7 -14 83 -20 170 -5 87 -13 168 -19 181 -5 13 -7 28
-4 33 3 4 1 27 -5 50 -6 23 -9 47 -7 53 6 15 94 20 128 8z m2689 -42 c0 -5 -9
-10 -20 -10 -11 0 -20 5 -20 10 0 6 9 10 20 10 11 0 20 -4 20 -10z m-1910
-145 c0 -11 -11 -15 -40 -15 -33 0 -40 -3 -40 -20 0 -23 -10 -26 -28 -8 -10
10 -7 17 10 34 28 27 98 33 98 9z m80 -30 c0 -9 -6 -12 -15 -9 -8 4 -15 10
-15 15 0 5 7 9 15 9 8 0 15 -7 15 -15z m1985 -95 c3 -5 -3 -10 -14 -10 -12 0
-21 5 -21 10 0 6 6 10 14 10 8 0 18 -4 21 -10z m95 -150 c0 -5 -15 -10 -34
-10 -19 0 -43 -3 -53 -7 -16 -6 -16 -5 -4 10 15 19 91 24 91 7z m-80 -62 c0
-16 -3 -19 -11 -11 -6 6 -8 16 -5 22 11 17 16 13 16 -11z m100 -69 c0 -5 -4
-9 -10 -9 -5 0 -10 7 -10 16 0 8 5 12 10 9 6 -3 10 -10 10 -16z m56 -6 c-10
-10 -19 5 -10 18 6 11 8 11 12 0 2 -7 1 -15 -2 -18z m-76 -28 c0 -8 -4 -15
-10 -15 -5 0 -10 7 -10 15 0 8 5 15 10 15 6 0 10 -7 10 -15z m240 -515 c0 -5
-5 -10 -11 -10 -5 0 -7 5 -4 10 3 6 8 10 11 10 2 0 4 -4 4 -10z m822 -113 c1
-63 5 -107 11 -107 6 0 3 -8 -5 -17 -13 -15 -27 -84 -32 -158 -1 -11 -4 -25
-8 -31 -4 -6 -6 -34 -6 -63 1 -29 -3 -56 -9 -59 -13 -9 -25 -57 -27 -110 0
-23 -5 -41 -11 -38 -6 2 -8 -22 -5 -66 5 -62 -1 -92 -13 -71 -2 5 -2 2 -1 -5
2 -7 -6 -22 -17 -33 -15 -15 -20 -30 -17 -50 3 -17 1 -32 -4 -35 -4 -3 -8 -23
-8 -45 0 -26 -5 -42 -15 -46 -24 -8 -27 1 -20 50 5 33 11 44 21 40 8 -3 14 0
14 6 0 6 -4 11 -9 11 -8 0 16 120 55 285 8 33 17 72 21 88 3 15 12 27 21 27
13 0 13 2 -3 14 -12 8 -16 19 -11 31 7 20 35 211 38 265 1 19 5 40 10 47 5 6
5 13 1 16 -12 8 -2 134 13 158 11 19 14 3 16 -104z m-2349 -344 c-7 -2 -13
-12 -13 -22 0 -9 -7 -26 -15 -37 -8 -12 -11 -24 -8 -28 3 -3 -3 -6 -15 -6 -13
0 -22 6 -22 15 0 8 5 15 10 15 6 0 10 13 10 29 0 29 12 38 50 39 10 0 11 -1 3
-5z m-529 -179 c9 -25 7 -64 -4 -64 -5 0 -10 6 -10 14 0 8 -4 16 -10 18 -11 3
-2 48 10 48 4 0 11 -7 14 -16z m2686 -484 c-8 -25 -16 -36 -21 -29 -4 7 -6 17
-4 23 2 6 6 24 10 40 4 21 9 26 17 18 8 -8 8 -22 -2 -52z m-3680 -230 c0 -5
-4 -10 -10 -10 -5 0 -10 5 -10 10 0 6 5 10 10 10 6 0 10 -4 10 -10z m0 -65 c0
-8 -4 -15 -10 -15 -5 0 -10 7 -10 15 0 8 5 15 10 15 6 0 10 -7 10 -15z m864
-1140 c-4 -8 -8 -15 -10 -15 -2 0 -4 7 -4 15 0 8 4 15 10 15 5 0 7 -7 4 -15z"/>
<path d="M4515 4811 c-3 -5 -1 -12 5 -16 5 -3 10 1 10 9 0 18 -6 21 -15 7z"/>
<path d="M4190 4240 c0 -5 7 -10 16 -10 8 0 12 5 9 10 -3 6 -10 10 -16 10 -5
0 -9 -4 -9 -10z"/>
<path d="M7345 4230 c3 -5 8 -10 11 -10 2 0 4 5 4 10 0 6 -5 10 -11 10 -5 0
-7 -4 -4 -10z"/>
<path d="M7166 3701 c-4 -7 -5 -15 -2 -18 9 -9 19 4 14 18 -4 11 -6 11 -12 0z"/>
<path d="M7148 3428 c9 -9 15 -9 24 0 9 9 7 12 -12 12 -19 0 -21 -3 -12 -12z"/>
<path d="M7040 3240 c0 -5 5 -10 10 -10 6 0 10 5 10 10 0 6 -4 10 -10 10 -5 0
-10 -4 -10 -10z"/>
<path d="M7295 3130 c-3 -5 -1 -10 4 -10 6 0 11 5 11 10 0 6 -2 10 -4 10 -3 0
-8 -4 -11 -10z"/>
<path d="M7133 3083 c-7 -2 -13 -8 -13 -12 0 -11 49 -1 56 10 5 9 -22 11 -43
2z"/>
<path d="M4797 9991 c3 -9 10 -22 16 -28 6 -9 5 -13 -4 -14 -8 0 1 -5 20 -10
37 -11 54 -3 30 14 -8 7 -18 19 -21 28 -9 23 -49 33 -41 10z"/>
<path d="M5111 9524 c0 -11 3 -14 6 -6 3 7 2 16 -1 19 -3 4 -6 -2 -5 -13z"/>
<path d="M5005 9500 c-3 -5 3 -10 14 -10 12 0 21 5 21 10 0 6 -6 10 -14 10 -8
0 -18 -4 -21 -10z"/>
<path d="M5094 9438 c-3 -4 2 -8 10 -8 9 0 19 0 23 -1 4 0 9 4 11 10 4 11 -37
11 -44 -1z"/>
<path d="M5103 9333 c-18 -7 -16 -23 2 -23 8 0 15 7 15 15 0 8 -1 15 -2 14 -2
0 -9 -3 -15 -6z"/>
<path d="M5021 9301 c8 -12 19 -16 32 -13 12 3 18 1 14 -5 -4 -6 4 -8 21 -5
27 5 27 6 -13 23 -54 25 -69 25 -54 0z"/>
<path d="M3907 8764 c-3 -4 -34 -8 -69 -10 -117 -7 -133 -9 -178 -23 -52 -15
-88 -41 -106 -76 -26 -50 10 -72 61 -39 28 19 66 21 190 10 111 -9 125 -13
147 -42 11 -13 24 -21 31 -19 7 3 19 0 27 -5 12 -8 12 -12 2 -18 -7 -5 -10
-17 -6 -28 5 -16 4 -16 -5 -4 -9 13 -12 13 -20 1 -5 -7 -24 -15 -42 -17 -87
-7 -170 -24 -196 -38 -15 -8 -36 -18 -45 -22 -10 -3 -18 -10 -18 -15 0 -5 -6
-9 -14 -9 -19 0 -47 -45 -40 -64 4 -10 -1 -18 -10 -22 -12 -5 -14 -10 -6 -19
5 -6 7 -15 3 -18 -3 -4 0 -14 7 -22 10 -12 24 -15 54 -11 31 5 44 2 60 -13 13
-13 41 -22 76 -25 30 -3 46 -3 35 0 -11 4 -28 13 -37 21 -10 9 -26 13 -37 10
-18 -4 -19 -2 -10 15 8 14 17 18 35 14 18 -5 22 -3 18 9 -4 10 0 15 15 15 14
0 21 6 21 19 0 21 17 37 27 27 4 -4 2 -11 -4 -17 -13 -13 -6 -42 8 -33 5 3 32
-8 59 -25 28 -17 60 -31 72 -31 42 0 3 -20 -51 -27 -47 -5 -83 -23 -47 -23 9
0 16 -6 16 -14 0 -9 -7 -12 -20 -9 -16 4 -19 2 -14 -11 10 -25 38 -36 91 -36
62 1 127 15 178 39 22 10 54 25 70 32 17 7 38 21 48 31 18 18 24 43 8 33 -5
-3 -12 -2 -15 3 -7 11 39 47 94 75 45 22 45 22 48 79 3 57 11 71 55 93 12 6
24 19 26 30 2 11 8 24 15 28 6 5 -5 6 -24 3 -19 -3 -29 -3 -22 0 6 3 12 22 11
42 0 21 -3 31 -6 25 -9 -23 -29 -14 -44 19 -9 21 -22 33 -39 35 -14 2 -29 9
-35 16 -5 6 -18 18 -28 26 -15 12 -18 10 -28 -18 -10 -28 -32 -45 -26 -20 6
27 -80 49 -218 56 -66 3 -125 10 -131 14 -6 5 -14 6 -17 3z m53 -301 c8 -8
-25 -23 -50 -23 -14 0 -35 -6 -46 -14 -11 -8 -42 -17 -69 -20 -28 -3 -43 -3
-35 0 8 4 23 14 33 23 39 33 144 55 167 34z"/>
<path d="M3127 8333 c-12 -11 -8 -58 6 -77 13 -18 15 -17 45 12 18 17 32 36
32 41 0 22 -67 41 -83 24z"/>
<path d="M3325 8050 c-3 -5 -1 -18 4 -27 9 -16 10 -14 11 10 0 28 -5 34 -15
17z"/>
<path d="M3325 7990 c-3 -5 -1 -18 4 -27 9 -16 10 -14 11 10 0 28 -5 34 -15
17z"/>
<path d="M7525 7650 c-4 -7 -3 -16 3 -22 14 -14 47 -6 47 12 0 18 -40 26 -50
10z"/>
<path d="M4460 7625 c-7 -8 -18 -15 -25 -15 -7 0 -32 -17 -56 -38 l-43 -39 24
-31 c27 -34 69 -42 90 -17 7 8 41 28 76 45 35 16 64 36 64 44 0 8 -11 26 -24
40 -27 30 -86 36 -106 11z"/>
<path d="M8770 7630 c-8 -5 -25 -10 -37 -10 -13 0 -23 -5 -23 -10 0 -16 31
-24 40 -10 6 9 13 8 33 -5 23 -15 28 -15 41 -3 29 30 -16 62 -54 38z"/>
<path d="M3407 7453 c-12 -11 -8 -23 8 -23 8 0 15 7 15 15 0 16 -12 20 -23 8z"/>
<path d="M7156 7451 c-6 -10 16 -21 42 -21 13 0 12 3 -4 15 -22 17 -31 18 -38
6z"/>
<path d="M9515 7430 c-4 -6 -15 -8 -25 -5 -13 4 -22 -1 -30 -16 -11 -20 -10
-21 22 -13 52 12 93 11 91 -3 -2 -7 4 -13 12 -13 10 0 15 10 15 26 0 22 -4 25
-22 21 -12 -3 -29 -2 -39 4 -12 6 -20 5 -24 -1z"/>
<path d="M9375 7420 c-4 -7 -3 -16 3 -22 14 -14 45 -2 40 15 -6 16 -34 21 -43
7z"/>
<path d="M7048 7113 c7 -3 16 -2 19 1 4 3 -2 6 -13 5 -11 0 -14 -3 -6 -6z"/>
<path d="M7170 7109 c0 -5 5 -7 10 -4 6 3 10 8 10 11 0 2 -4 4 -10 4 -5 0 -10
-5 -10 -11z"/>
<path d="M4340 6689 c0 -5 5 -7 10 -4 6 3 10 8 10 11 0 2 -4 4 -10 4 -5 0 -10
-5 -10 -11z"/>
<path d="M6405 6610 c-4 -6 5 -10 20 -10 15 0 24 4 20 10 -3 6 -12 10 -20 10
-8 0 -17 -4 -20 -10z"/>
<path d="M4445 6030 c3 -5 13 -10 21 -10 8 0 14 5 14 10 0 6 -9 10 -21 10 -11
0 -17 -4 -14 -10z"/>
<path d="M6640 6010 c0 -5 18 -10 40 -10 22 0 40 5 40 10 0 6 -18 10 -40 10
-22 0 -40 -4 -40 -10z"/>
<path d="M6635 5893 c9 -36 12 -38 30 -23 8 7 26 10 40 8 26 -5 29 -1 19 26
-5 13 -9 14 -21 5 -10 -9 -17 -9 -25 -1 -7 7 -21 12 -31 12 -16 0 -18 -5 -12
-27z"/>
<path d="M6620 5831 c0 -10 7 -22 16 -25 12 -5 15 -2 10 10 -3 8 -6 20 -6 25
0 5 -4 9 -10 9 -5 0 -10 -9 -10 -19z"/>
<path d="M6476 5823 c-9 -9 -7 -25 3 -42 8 -12 12 -12 25 -2 9 8 16 17 16 22
0 12 -36 30 -44 22z"/>
<path d="M2816 5714 c-13 -34 33 -148 100 -244 25 -35 104 -139 212 -280 25
-32 305 -312 404 -405 69 -64 153 -125 172 -125 10 0 7 35 -3 46 -6 5 -11 29
-13 53 -3 43 -4 43 -42 47 -21 2 -46 10 -56 19 -9 8 -21 15 -26 15 -13 0 -164
133 -288 255 -51 50 -105 120 -191 250 -106 159 -165 268 -165 301 0 36 -10
54 -41 69 -36 19 -55 19 -63 -1z"/>
<path d="M6640 5701 c0 -12 5 -21 10 -21 6 0 10 6 10 14 0 8 -4 18 -10 21 -5
3 -10 -3 -10 -14z"/>
<path d="M6680 5699 c0 -5 5 -7 10 -4 6 3 10 8 10 11 0 2 -4 4 -10 4 -5 0 -10
-5 -10 -11z"/>
<path d="M6690 5510 c-8 -15 -7 -21 8 -29 23 -12 47 2 48 29 2 27 -41 27 -56
0z"/>
<path d="M6706 5434 c-20 -19 -20 -44 -1 -70 14 -18 14 -18 15 0 0 10 12 29
26 42 14 13 22 29 19 34 -9 15 -42 12 -59 -6z"/>
<path d="M6710 5260 c-6 -11 -8 -29 -5 -40 6 -18 7 -18 26 -2 23 20 24 35 5
51 -12 10 -17 8 -26 -9z"/>
<path d="M2233 5253 c-18 -6 -16 -23 1 -23 17 0 30 16 19 23 -5 2 -14 2 -20 0z"/>
<path d="M2305 5240 c-3 -5 -1 -19 5 -30 6 -11 9 -24 6 -28 -6 -10 22 -93 35
-107 11 -10 6 23 -11 77 -6 19 -5 30 6 39 8 6 14 17 14 24 0 16 -47 37 -55 25z"/>
<path d="M2670 4963 c0 -9 75 -104 105 -132 14 -13 25 -27 25 -32 0 -5 5 -9
10 -9 6 0 48 -31 95 -70 47 -38 91 -73 98 -77 7 -4 25 -24 40 -44 15 -19 39
-41 54 -48 16 -8 36 -17 46 -22 18 -10 25 5 7 16 -5 3 -7 12 -4 20 8 19 -40
63 -156 145 -94 66 -221 172 -274 229 -28 29 -46 39 -46 24z"/>
<path d="M3520 4270 c0 -5 5 -10 11 -10 5 0 7 5 4 10 -3 6 -8 10 -11 10 -2 0
-4 -4 -4 -10z"/>
<path d="M1358 3885 l-26 -15 -3 -142 c-5 -274 7 -1137 15 -1145 3 -4 6 -17 6
-30 0 -14 4 -21 10 -18 6 4 10 -5 10 -19 0 -14 -4 -26 -9 -26 -10 0 -15 -61
-11 -140 3 -62 3 -116 2 -145 -4 -66 -1 -115 8 -110 6 3 10 1 10 -4 0 -6 -4
-11 -8 -11 -5 0 -8 -75 -7 -167 1 -93 -3 -188 -8 -213 -9 -45 -10 -173 -1
-350 5 -125 5 -127 -2 -182 -3 -27 -2 -48 3 -48 11 0 9 -78 -2 -103 -4 -11 -3
-23 4 -30 6 -6 11 -21 11 -34 0 -14 6 -23 15 -23 8 0 15 -4 15 -10 0 -5 -7
-10 -15 -10 -9 0 -15 -9 -15 -25 0 -14 5 -25 10 -25 6 0 8 -15 6 -33 -2 -17 0
-53 3 -79 6 -36 4 -51 -7 -62 -12 -12 -13 -18 -3 -29 9 -12 8 -16 -4 -21 -11
-4 -14 -13 -10 -26 4 -11 2 -20 -4 -20 -19 0 -12 -18 8 -25 12 -4 18 -12 14
-21 -3 -8 1 -14 8 -14 10 -1 9 -5 -3 -14 -10 -7 -18 -16 -18 -20 0 -3 8 -6 18
-6 16 -1 16 -1 0 -11 -21 -12 -23 -40 -6 -57 9 -9 9 -15 0 -24 -18 -18 -14
-48 10 -67 25 -21 19 -50 -12 -58 -19 -5 -24 -19 -20 -56 1 -15 -3 -17 -19
-12 -15 5 -21 2 -21 -9 0 -9 6 -16 14 -16 17 0 26 -22 26 -66 0 -24 -5 -34
-15 -34 -11 0 -15 11 -15 40 0 22 -4 40 -10 40 -5 0 -10 -18 -10 -39 0 -22 -5
-41 -12 -44 -27 -9 2 -18 66 -19 66 -1 106 -19 106 -47 0 -17 267 -15 273 2 4
9 6 9 6 0 1 -18 21 -16 41 2 17 16 16 65 -1 65 -5 0 -6 6 -3 14 3 8 -9 22 -31
35 -39 23 -42 44 -7 49 19 3 21 10 21 58 -1 35 -6 57 -14 60 -20 8 -16 61 5
67 13 3 17 11 13 25 -3 12 2 31 11 44 23 33 20 46 -13 50 l-29 3 15 38 c12 29
21 37 42 38 25 2 25 2 2 6 -37 7 -52 28 -53 75 -1 67 -7 81 -33 76 -21 -4 -22
-3 -13 18 6 12 19 25 29 27 14 4 19 14 19 36 0 18 7 43 17 57 15 24 15 25 -5
31 -29 7 -28 25 1 21 14 -2 22 2 22 12 0 10 -8 14 -22 12 -13 -2 -31 1 -40 7
-15 9 -13 10 15 11 l33 0 -21 22 c-22 24 -25 34 -10 43 15 9 12 25 -5 25 -24
0 -33 76 -10 93 6 4 0 10 -12 13 -25 7 -30 19 -13 29 8 5 8 11 0 20 -7 9 -6
16 4 24 10 8 14 31 13 72 -1 33 3 63 9 67 18 12 24 41 30 149 2 58 5 109 6
112 1 3 -3 15 -7 25 -6 13 -3 23 8 31 19 14 23 35 7 35 -11 0 -5 42 12 76 7
15 7 28 0 41 -7 12 -7 25 -1 36 6 10 7 27 4 38 -4 12 -1 27 9 38 13 15 13 22
1 58 -11 31 -12 50 -4 78 6 21 9 48 6 61 -2 13 0 25 5 26 5 2 9 41 9 88 0 71
-3 87 -20 100 -13 10 -19 28 -20 60 -1 58 -8 107 -17 122 -4 6 -8 30 -10 52
-3 36 -30 144 -47 186 -17 42 -30 437 -15 446 4 3 10 26 13 52 4 26 10 59 15
74 7 22 5 30 -8 37 -14 8 -14 12 -3 25 8 9 11 19 8 22 -3 3 1 33 9 66 8 34 12
63 9 66 -3 3 1 12 7 20 7 8 11 32 9 54 -2 26 2 44 11 49 10 7 10 14 -5 38 -21
36 -21 41 -2 41 8 0 15 -8 15 -17 0 -15 2 -16 10 -3 13 21 -32 45 -59 30 -28
-14 -39 -13 -44 8 -3 14 -6 12 -15 -9 -6 -15 -17 -29 -25 -32 -8 -3 -25 -27
-38 -54 -21 -43 -24 -45 -27 -23 -2 14 -11 33 -19 42 -8 9 -16 31 -18 49 -1
17 -7 34 -14 38 -6 4 -9 15 -6 23 4 9 2 19 -4 22 -6 4 -8 13 -5 21 7 16 -44
45 -78 45 -13 -1 -35 -7 -50 -15z m382 -3315 c0 -5 -9 -10 -21 -10 -11 0 -17
5 -14 10 3 6 13 10 21 10 8 0 14 -4 14 -10z m-355 -350 c3 -5 -1 -10 -9 -10
-9 0 -16 5 -16 10 0 6 4 10 9 10 6 0 13 -4 16 -10z m9 -75 c-4 -8 -8 -15 -10
-15 -2 0 -4 7 -4 15 0 8 4 15 10 15 5 0 7 -7 4 -15z m46 -71 c0 -2 -19 -3 -42
-3 -39 1 -41 2 -13 8 28 7 55 4 55 -5z"/>
<path d="M2265 3863 c-56 -12 -63 -21 -58 -86 5 -78 5 -72 -7 -139 -7 -38 -7
-65 0 -83 7 -18 7 -33 -1 -46 -11 -22 -9 -159 2 -159 18 0 39 34 39 61 0 17 7
37 15 46 8 8 13 18 10 23 -3 4 2 25 11 45 10 24 15 70 16 129 0 114 -2 216 -5
215 -1 -1 -11 -3 -22 -6z"/>
<path d="M1921 3828 c1 -24 3 -27 6 -10 5 28 33 29 33 1 0 -11 5 -17 10 -14
18 11 11 32 -15 43 -35 16 -35 16 -34 -20z"/>
<path d="M1891 3723 c-6 -20 -8 -40 -5 -45 3 -5 -2 -16 -12 -23 -17 -13 -17
-16 -4 -25 11 -7 19 -4 32 12 l16 22 5 -25 c3 -20 5 -18 6 9 0 20 6 32 15 32
16 0 26 32 19 60 -4 14 -14 20 -34 20 -24 0 -30 -5 -38 -37z"/>
<path d="M1905 3599 c-10 -15 3 -25 16 -12 7 7 7 13 1 17 -6 3 -14 1 -17 -5z"/>
<path d="M2197 3303 c-13 -12 -8 -55 6 -50 6 2 12 10 12 18 0 8 4 20 8 27 9
13 -14 18 -26 5z"/>
<path d="M3612 3214 c-26 -18 -27 -27 -7 -48 13 -13 14 -19 3 -38 -7 -13 -17
-27 -23 -31 -6 -6 -6 -10 3 -14 17 -7 15 -33 -3 -33 -9 0 -12 -6 -9 -15 4 -9
1 -29 -6 -45 -9 -22 -9 -41 -1 -81 10 -43 8 -62 -6 -112 -11 -37 -24 -62 -35
-64 -15 -5 -15 -8 2 -46 14 -30 16 -46 9 -60 -7 -13 -7 -23 2 -33 9 -11 8 -14
-4 -14 -11 0 -16 -19 -22 -87 -4 -49 -10 -90 -14 -93 -7 -5 -16 -57 -40 -213
-5 -31 -16 -68 -25 -82 -9 -14 -12 -25 -6 -25 17 0 11 -39 -11 -70 -12 -16
-19 -36 -16 -44 9 -24 -13 -78 -29 -72 -8 3 -14 -1 -14 -10 0 -11 4 -12 19 -4
27 14 39 -7 15 -25 -11 -8 -15 -15 -9 -15 5 0 -1 -7 -13 -16 -13 -9 -21 -22
-18 -30 3 -8 -3 -22 -13 -31 -22 -22 -33 -51 -21 -58 4 -3 8 -31 8 -63 -1 -43
-7 -65 -25 -89 -12 -17 -23 -36 -23 -42 0 -6 -4 -11 -9 -11 -19 0 -19 -31 0
-49 20 -18 20 -18 -6 -14 -22 5 -25 2 -25 -22 0 -18 -6 -28 -20 -32 -23 -6
-27 -23 -5 -23 10 0 7 -7 -9 -25 -17 -18 -25 -42 -30 -88 -9 -81 -24 -127 -42
-127 -8 0 -14 -4 -14 -10 0 -5 5 -10 10 -10 16 0 11 -40 -6 -47 -12 -5 -13 -7
-2 -14 10 -6 8 -13 -10 -30 -16 -15 -22 -28 -18 -44 8 -30 -1 -36 -32 -19 -15
8 -37 14 -48 14 -12 0 -25 7 -28 16 -3 9 -13 14 -21 10 -27 -10 -25 12 2 33
28 21 28 21 6 27 -18 5 -23 13 -22 38 0 25 2 27 8 12 6 -15 10 -16 15 -7 5 8
-1 22 -14 36 -13 14 -20 31 -17 39 4 9 -1 19 -10 24 -13 8 -13 13 -3 32 11 20
10 25 -9 39 -19 15 -20 18 -6 45 11 20 12 33 5 40 -13 13 -13 96 1 96 6 0 9
28 6 80 -2 51 0 81 7 85 6 3 1 3 -11 1 -30 -5 -31 24 -2 31 18 5 20 11 14 40
-4 25 -2 35 10 39 8 3 15 13 15 22 0 12 -3 13 -12 4 -7 -7 -18 -12 -25 -12
-17 0 -17 27 0 33 8 4 3 14 -15 31 -34 30 -35 43 -5 49 l22 4 -22 2 c-18 1
-23 7 -23 30 0 23 5 31 23 34 l22 4 -22 2 c-16 1 -23 7 -23 20 0 27 -33 35
-69 17 -39 -21 -48 -36 -28 -51 28 -20 22 -90 -13 -152 -20 -35 -30 -65 -28
-86 2 -36 -8 -60 -23 -52 -5 4 -9 -4 -9 -17 0 -18 2 -20 10 -8 8 12 10 9 10
-12 0 -15 -7 -31 -16 -36 -11 -6 -16 -28 -19 -78 -2 -38 -8 -84 -14 -103 -6
-19 -8 -37 -6 -42 3 -4 -3 -23 -13 -41 -10 -18 -17 -39 -14 -47 3 -9 0 -11 -8
-6 -10 6 -12 -6 -6 -58 3 -37 3 -67 -2 -67 -13 0 -31 -90 -26 -130 3 -19 -2
-66 -11 -105 -8 -38 -15 -88 -15 -110 1 -91 -2 -125 -11 -125 -5 0 -9 10 -10
23 0 21 -1 21 -10 -3 -7 -17 -7 -32 0 -48 16 -35 13 -44 -11 -38 -13 3 -18 3
-12 0 8 -3 6 -16 -6 -42 -15 -31 -16 -38 -4 -40 19 -5 18 -52 -2 -80 -10 -15
-14 -36 -12 -60 3 -26 0 -41 -11 -49 -12 -9 -14 -16 -5 -30 8 -13 8 -26 -2
-49 -9 -22 -10 -41 -4 -63 5 -19 5 -33 -1 -37 -5 -3 -7 -9 -4 -14 3 -5 -3 -22
-15 -38 -12 -17 -18 -35 -14 -45 6 -16 41 -17 428 -17 l421 0 23 35 c13 18 21
39 17 45 -3 5 1 13 9 16 10 4 16 18 16 35 0 25 3 29 23 26 12 -2 16 -2 10 0
-9 3 -13 29 -13 84 0 46 -4 79 -10 79 -16 0 -11 21 9 38 28 25 40 72 25 100
-16 32 -7 61 22 68 28 7 28 7 10 67 -8 26 -10 47 -5 47 5 0 9 17 9 38 0 25 7
45 19 56 23 21 33 73 14 80 -16 7 -6 36 13 36 16 0 19 16 4 25 -19 12 -11 84
13 116 15 22 22 44 21 75 -1 31 2 42 10 34 16 -16 26 -12 23 12 -2 12 -12 25
-22 28 -17 6 -17 7 3 12 13 4 22 14 22 26 0 11 7 25 15 32 8 7 15 23 15 37 0
14 4 21 10 18 12 -7 30 34 23 52 -3 6 5 16 16 23 12 6 21 21 21 34 0 12 3 26
7 30 12 12 10 45 -4 50 -18 7 -16 45 2 52 14 6 13 8 -2 20 -17 12 -17 14 2 28
26 20 95 21 95 1 0 -7 8 -19 18 -24 16 -10 16 -10 0 -11 -10 0 -18 -4 -18 -10
0 -5 9 -10 20 -10 25 0 26 -17 1 -25 -16 -5 -19 -14 -16 -63 1 -31 5 -65 10
-74 4 -11 3 -18 -4 -18 -18 0 -13 -18 7 -24 9 -3 18 -16 19 -28 4 -60 11 -95
24 -116 10 -16 11 -25 3 -30 -6 -4 -19 -21 -29 -39 -18 -30 -18 -33 -2 -51 9
-10 17 -24 17 -30 0 -7 6 -12 13 -12 7 -1 5 -6 -6 -14 -18 -14 -17 -14 2 -21
23 -7 27 -25 9 -43 -9 -9 -9 -12 0 -12 20 0 14 -28 -9 -40 -16 -9 -19 -17 -14
-38 8 -33 26 -52 32 -34 3 6 12 12 20 12 11 0 13 -5 8 -17 -4 -10 -10 -29 -13
-41 -3 -18 -7 -20 -13 -10 -7 11 -11 10 -24 -3 -20 -20 -10 -48 21 -60 24 -8
33 -29 14 -29 -5 0 -10 -18 -10 -40 0 -36 3 -40 25 -40 16 0 25 -6 25 -15 0
-8 -6 -15 -14 -15 -24 0 -30 -22 -11 -37 11 -7 14 -13 8 -13 -6 0 -18 -16 -28
-36 -9 -20 -26 -39 -36 -41 -16 -5 -17 -7 -5 -17 21 -17 26 -74 7 -81 -14 -6
-13 -8 3 -17 14 -8 21 -7 27 3 6 10 9 8 9 -8 0 -13 -8 -24 -20 -28 -16 -5 -20
-15 -20 -49 0 -23 6 -48 13 -55 10 -10 8 -15 -7 -27 -11 -8 -28 -14 -38 -14
-10 0 -18 -4 -18 -10 0 -5 6 -10 14 -10 12 0 13 -7 5 -32 -17 -60 -20 -58 129
-58 l137 0 -2 137 c-1 76 -5 176 -8 223 -11 180 -13 217 -19 275 -3 33 -9 114
-12 180 -3 66 -10 125 -16 132 -7 9 -7 13 1 13 7 0 10 8 7 18 -3 9 -8 62 -12
117 -3 55 -7 120 -9 145 -2 25 -6 86 -9 135 -3 50 -8 173 -12 275 -7 252 -12
318 -25 341 -6 11 -9 35 -8 52 3 52 0 67 -16 67 -9 0 -15 9 -15 25 0 14 -4 25
-10 25 -5 0 -10 -11 -10 -25 0 -16 -6 -25 -15 -25 -8 0 -15 -7 -15 -15 0 -8 7
-15 15 -15 8 0 15 5 15 10 0 6 5 10 11 10 6 0 9 -14 7 -32 -2 -27 -7 -33 -25
-31 -14 2 -24 -4 -28 -17 -12 -37 -39 -23 -58 29 -9 27 -17 56 -17 65 0 9 -3
16 -8 16 -4 0 -12 16 -18 35 -10 32 -9 37 9 50 17 12 19 21 14 59 -5 37 -4 46
8 46 8 0 15 9 15 20 0 11 -4 20 -10 20 -5 0 -10 10 -10 23 0 17 -2 19 -10 7
-5 -8 -12 -11 -16 -7 -4 4 -1 14 7 22 13 14 17 13 34 -3 19 -18 20 -18 37 2
15 19 15 23 1 38 -14 16 -14 18 0 24 9 3 14 11 12 17 -2 7 -6 25 -9 40 -4 15
-11 25 -16 22 -6 -3 -10 -1 -10 4 0 6 7 11 16 11 9 0 14 6 11 13 -2 6 -11 11
-21 9 -20 -4 -22 26 -2 34 8 3 18 17 22 32 11 36 11 145 1 153 -5 4 -1 29 9
57 20 56 16 69 -15 53 -27 -15 -34 0 -22 44 8 31 7 37 -10 48 -10 6 -19 17
-19 24 0 7 -4 13 -10 13 -5 0 -10 18 -10 39 0 22 -5 42 -12 44 -10 4 -10 7 0
15 11 7 11 18 2 51 -11 41 -35 53 -35 18 0 -8 -4 -19 -8 -23 -4 -4 -7 -3 -7 3
0 7 -16 10 -37 8 -21 -1 -26 0 -10 2 15 2 27 11 27 19 0 18 -20 18 -48 -2z
m103 -164 c3 -5 1 -10 -4 -10 -6 0 -11 5 -11 10 0 6 2 10 4 10 3 0 8 -4 11
-10z m60 -79 c3 -5 1 -12 -5 -16 -5 -3 -10 1 -10 9 0 18 6 21 15 7z m5 -81 c0
-5 -4 -10 -10 -10 -5 0 -10 5 -10 10 0 6 5 10 10 10 6 0 10 -4 10 -10z m-70
-820 c0 -6 -7 -13 -15 -16 -12 -5 -14 -20 -11 -68 2 -33 1 -44 -1 -23 -6 49
-23 48 -23 -2 0 -30 5 -41 18 -46 11 -3 24 -17 30 -30 6 -14 16 -25 22 -25 5
0 10 -4 10 -10 0 -5 -9 -10 -20 -10 -11 0 -20 5 -20 10 0 6 -4 10 -10 10 -5 0
-10 -11 -10 -24 0 -13 -7 -27 -15 -30 -9 -3 -21 -19 -26 -36 -10 -28 -29 -42
-29 -20 0 6 5 10 10 10 16 0 12 47 -5 54 -23 8 -18 46 9 67 19 15 24 31 28 81
6 70 24 118 45 118 7 0 13 -5 13 -10z m50 -90 c0 -28 5 -58 11 -69 8 -12 9
-23 1 -36 -8 -15 -11 -5 -17 51 -4 38 -12 72 -18 75 -11 8 -1 29 14 29 5 0 9
-23 9 -50z m60 -70 c0 -5 -2 -10 -4 -10 -3 0 -8 5 -11 10 -3 6 -1 10 4 10 6 0
11 -4 11 -10z m-970 -15 c0 -8 -4 -15 -10 -15 -5 0 -10 7 -10 15 0 8 5 15 10
15 6 0 10 -7 10 -15z m930 -141 c0 -13 -31 -35 -41 -28 -9 5 -6 11 6 21 20 14
35 17 35 7z m-20 -115 c0 -10 -8 -23 -17 -28 -17 -10 -17 -10 0 -11 9 0 17 5
17 11 0 5 5 7 10 4 6 -3 10 -13 10 -21 0 -16 -70 -18 -125 -4 l-30 8 28 1 c15
0 27 6 27 11 0 6 7 21 15 34 19 28 65 25 65 -5z m-700 -750 c0 -5 -12 -9 -26
-9 -22 0 -24 2 -14 14 12 15 40 11 40 -5z m-20 -34 c0 -11 -11 -15 -40 -15
-29 0 -40 4 -40 15 0 11 11 15 40 15 29 0 40 -4 40 -15z"/>
<path d="M2190 3175 c0 -8 5 -15 10 -15 6 0 10 7 10 15 0 8 -4 15 -10 15 -5 0
-10 -7 -10 -15z"/>
<path d="M955 2610 c-3 -5 -1 -10 4 -10 6 0 11 5 11 10 0 6 -2 10 -4 10 -3 0
-8 -4 -11 -10z"/>
<path d="M1036 2508 c10 -33 26 -50 36 -40 12 12 -11 62 -29 62 -10 0 -12 -7
-7 -22z"/>
<path d="M1160 2500 c0 -11 7 -20 15 -20 13 0 14 4 5 20 -6 11 -13 20 -15 20
-3 0 -5 -9 -5 -20z"/>
<path d="M863 2476 c-12 -38 -2 -186 16 -226 11 -26 42 -176 46 -220 3 -49 18
-105 28 -112 6 -3 11 -30 12 -60 2 -88 17 -178 29 -178 6 0 4 -5 -4 -10 -12
-7 -13 -15 -3 -39 8 -22 8 -31 -1 -34 -8 -3 -8 -8 2 -18 6 -7 12 -27 12 -45 0
-17 7 -37 15 -44 9 -8 12 -22 8 -41 -4 -21 0 -35 12 -49 18 -20 14 -68 -7 -81
-6 -4 -3 -9 8 -13 15 -4 19 -15 19 -51 0 -28 5 -49 14 -54 11 -7 12 -22 8 -64
-7 -52 -6 -55 17 -61 13 -3 26 -15 29 -26 6 -25 -2 -60 -15 -60 -13 0 0 -18
20 -29 15 -8 17 -3 17 38 0 25 3 53 7 61 13 27 56 413 62 555 8 185 -6 386
-28 420 -12 18 -15 36 -11 56 5 21 3 29 -8 29 -20 0 -50 37 -44 54 3 8 -1 20
-9 26 -8 7 -14 23 -14 37 0 13 -7 26 -15 29 -8 4 -15 12 -15 19 0 8 -18 32
-40 54 -25 25 -40 50 -40 64 0 17 -12 34 -37 53 -21 15 -42 34 -46 41 -14 23
-33 14 -44 -21z"/>
<path d="M1140 2460 c-8 -5 -23 -11 -33 -14 -13 -4 -16 -10 -9 -23 5 -10 8
-23 6 -28 -5 -13 59 -85 76 -85 11 0 9 28 -6 83 -4 11 0 17 10 17 22 0 20 23
-2 43 -21 19 -21 19 -42 7z"/>
<path d="M1093 2293 c9 -9 20 -13 24 -9 4 4 1 11 -7 16 -25 16 -35 11 -17 -7z"/>
<path d="M3842 2270 c0 -14 2 -19 5 -12 2 6 2 18 0 25 -3 6 -5 1 -5 -13z"/>
<path d="M287 2218 c-4 -12 -2 -27 2 -32 10 -12 13 -135 9 -344 -2 -79 0 -146
5 -149 4 -2 2 -13 -3 -24 -6 -11 -8 -25 -4 -31 12 -19 18 -105 13 -208 -1 -36
1 -78 4 -95 8 -36 28 -227 32 -310 2 -33 6 -87 8 -120 5 -62 6 -66 7 -112 3
-125 15 -257 26 -274 3 -5 7 -52 9 -106 3 -60 10 -109 20 -130 10 -21 14 -45
10 -63 -3 -15 -2 -31 3 -34 6 -3 8 -24 5 -45 -3 -22 0 -62 7 -90 l12 -51 289
0 290 0 5 29 c4 18 14 32 28 36 11 3 16 9 10 11 -12 5 8 58 26 69 4 3 6 14 3
25 -3 11 0 20 6 20 19 0 12 46 -10 66 -15 13 -25 16 -37 8 -9 -5 -39 -7 -65
-4 -37 5 -46 3 -43 -7 8 -19 -35 -16 -61 5 -17 13 -24 32 -29 75 -6 52 -5 60
15 73 25 18 27 39 5 61 -19 19 -35 3 -27 -28 7 -24 -16 -25 -23 -1 -3 9 -14
33 -24 54 -17 31 -17 37 -5 42 22 8 18 26 -5 26 -20 0 -21 5 -25 65 -1 11 -4
26 -9 33 -4 7 -8 30 -8 52 0 25 -7 45 -19 56 -12 11 -17 24 -13 36 8 27 -5 78
-21 78 -14 0 -29 45 -19 61 3 5 -1 21 -10 34 -9 13 -16 33 -16 44 0 11 -7 26
-15 35 -12 11 -13 21 -5 41 12 32 13 45 1 26 -7 -11 -12 -3 -21 28 -6 24 -9
46 -6 49 3 3 -1 13 -9 22 -8 9 -18 45 -21 81 -4 36 -15 75 -25 90 -20 28 -37
87 -45 159 -3 25 -12 52 -20 61 -8 8 -14 36 -14 61 0 28 -6 50 -15 58 -8 7
-15 29 -15 49 0 22 -10 50 -24 72 -13 19 -25 48 -25 65 -1 16 -1 44 -2 62 0
17 -4 32 -9 32 -10 0 -34 60 -31 78 1 8 -2 19 -7 25 -5 7 -12 27 -16 45 -3 19
-14 44 -25 58 l-19 24 -5 -22z"/>
<path d="M2857 2043 c-12 -11 -8 -23 8 -23 8 0 15 -4 15 -10 0 -5 -7 -10 -16
-10 -8 0 -12 -4 -9 -10 16 -26 38 3 28 39 -5 21 -14 26 -26 14z"/>
<path d="M2940 1880 c0 -5 5 -10 10 -10 6 0 10 5 10 10 0 6 -4 10 -10 10 -5 0
-10 -4 -10 -10z"/>
<path d="M2752 1820 c0 -14 2 -19 5 -12 2 6 2 18 0 25 -3 6 -5 1 -5 -13z"/>
<path d="M2960 1805 c0 -9 6 -12 15 -9 8 4 15 10 15 15 0 5 -7 9 -15 9 -8 0
-15 -7 -15 -15z"/>
<path d="M4990 1080 c0 -5 5 -10 10 -10 6 0 10 5 10 10 0 6 -4 10 -10 10 -5 0
-10 -4 -10 -10z"/>
<path d="M2560 735 c0 -8 2 -15 4 -15 2 0 6 7 10 15 3 8 1 15 -4 15 -6 0 -10
-7 -10 -15z"/>
<path d="M1025 521 c-3 -5 -1 -12 5 -16 5 -3 10 1 10 9 0 18 -6 21 -15 7z"/>
<path d="M960 490 c0 -5 -8 -10 -17 -10 -14 0 -15 -2 -4 -12 11 -10 14 -10 18
0 3 6 11 12 19 12 9 0 12 5 9 10 -3 6 -10 10 -16 10 -5 0 -9 -4 -9 -10z"/>
<path d="M3440 444 c0 -8 5 -12 10 -9 6 4 8 11 5 16 -9 14 -15 11 -15 -7z"/>
<path d="M1390 20 c-12 -8 -12 -10 3 -16 20 -7 47 1 47 16 0 12 -30 13 -50 0z"/>
<path d="M3350 10 c0 -6 7 -10 15 -10 8 0 15 2 15 4 0 2 -7 6 -15 10 -8 3 -15
1 -15 -4z"/>
</g>
</svg>
